<?xml version="1.0" encoding="UTF-8"?>
<svg version="1.1" xmlns="http://www.w3.org/2000/svg" width="255" height="255">
<path d="M0 0 C0.87140625 0.52464844 1.7428125 1.04929687 2.640625 1.58984375 C9.08518467 5.55918846 15.47947983 9.79083238 21 15 C21 15.66 21 16.32 21 17 C21.53625 17.20625 22.0725 17.4125 22.625 17.625 C25.91978009 19.53250426 28.59363628 22.04819384 31 25 C31 25.66 31 26.32 31 27 C31.99 27.33 32.98 27.66 34 28 C35.38671875 29.55859375 35.38671875 29.55859375 36.6875 31.4375 C37.12449219 32.05496094 37.56148437 32.67242187 38.01171875 33.30859375 C39 35 39 35 39 37 C39.66 37 40.32 37 41 37 C59.87400717 64.42841329 65.71051438 97.98287025 59.75 130.5625 C56.90487637 143.58441201 52.34055492 155.3401876 46 167 C45.51660156 167.89460937 45.03320312 168.78921875 44.53515625 169.7109375 C40.7280113 176.3971699 35.9653371 182.14603246 31 188 C30.02002358 189.22852117 29.04067608 190.45754487 28.0625 191.6875 C27.381875 192.450625 26.70125 193.21375 26 194 C25.34 194 24.68 194 24 194 C23.7525 194.598125 23.505 195.19625 23.25 195.8125 C21.81927475 198.31626919 20.4308418 199.48072388 18 201 C17.34 201 16.68 201 16 201 C16 201.66 16 202.32 16 203 C5.45083436 212.36507562 -8.00736161 217.91440964 -21 223 C-22.20785156 223.50660156 -23.41570312 224.01320312 -24.66015625 224.53515625 C-29.67474814 226.39964686 -34.7724853 227.04811996 -40.0625 227.6875 C-41.08400146 227.8127002 -42.10550293 227.93790039 -43.15795898 228.06689453 C-70.5069691 231.2412368 -97.89023313 226.62725954 -122 213 C-122 212.34 -122 211.68 -122 211 C-122.83144531 210.8453125 -122.83144531 210.8453125 -123.6796875 210.6875 C-132.7645347 207.99569342 -140.32096356 200.38815713 -147 194 C-148.01513672 193.09701172 -148.01513672 193.09701172 -149.05078125 192.17578125 C-170.57878216 172.28718722 -181.10127216 139.53356235 -183.296875 111.1640625 C-183.840741 86.52693252 -177.2485149 61.76880717 -164 41 C-163.38382813 39.98808594 -162.76765625 38.97617187 -162.1328125 37.93359375 C-161.51148438 36.92425781 -160.89015625 35.91492187 -160.25 34.875 C-159.67765625 33.94429687 -159.1053125 33.01359375 -158.515625 32.0546875 C-158.01546875 31.37664063 -157.5153125 30.69859375 -157 30 C-156.34 30 -155.68 30 -155 30 C-154.67 29.01 -154.34 28.02 -154 27 C-153.34 27 -152.68 27 -152 27 C-151.79375 26.46375 -151.5875 25.9275 -151.375 25.375 C-149.46749574 22.08021991 -146.95180616 19.40636372 -144 17 C-143.34 17 -142.68 17 -142 17 C-141.505 15.515 -141.505 15.515 -141 14 C-139.44140625 12.61328125 -139.44140625 12.61328125 -137.5625 11.3125 C-136.94503906 10.87550781 -136.32757813 10.43851563 -135.69140625 9.98828125 C-134 9 -134 9 -132 9 C-132 8.34 -132 7.68 -132 7 C-94.69031288 -19.00079232 -39.61997691 -24.65711329 0 0 Z " fill="#4060EA" transform="translate(188,21)"/>
<path d="M0 0 C1.93166016 0.01740234 1.93166016 0.01740234 3.90234375 0.03515625 C5.19269531 0.04417969 6.48304687 0.05320312 7.8125 0.0625 C8.81152344 0.07410156 9.81054688 0.08570312 10.83984375 0.09765625 C11.16984375 2.07765625 11.49984375 4.05765625 11.83984375 6.09765625 C17.11984375 6.09765625 22.39984375 6.09765625 27.83984375 6.09765625 C28.16984375 4.11765625 28.49984375 2.13765625 28.83984375 0.09765625 C48.96984375 0.09765625 69.09984375 0.09765625 89.83984375 0.09765625 C90.33484375 3.06765625 90.33484375 3.06765625 90.83984375 6.09765625 C96.11984375 6.09765625 101.39984375 6.09765625 106.83984375 6.09765625 C107.16984375 4.11765625 107.49984375 2.13765625 107.83984375 0.09765625 C112.78984375 0.09765625 117.73984375 0.09765625 122.83984375 0.09765625 C122.91395277 7.57240625 122.96842712 15.0469428 123.00463867 22.52197266 C123.01973311 25.06530482 123.04021063 27.60861092 123.06616211 30.15185547 C123.10251552 33.80572945 123.11956372 37.45925954 123.1328125 41.11328125 C123.14829636 42.25194641 123.16378021 43.39061157 123.17973328 44.56378174 C123.17995987 45.62457947 123.18018646 46.6853772 123.18041992 47.77832031 C123.19041267 49.1773056 123.19041267 49.1773056 123.2006073 50.60455322 C122.76810745 53.59339917 121.92213645 54.93559735 119.83984375 57.09765625 C116.95721232 58.05853339 115.1063435 58.23394549 112.10891724 58.25828552 C110.64950714 58.27335396 110.64950714 58.27335396 109.16061401 58.28872681 C107.56154709 58.2974733 107.56154709 58.2974733 105.93017578 58.30639648 C104.24444458 58.32107216 104.24444458 58.32107216 102.5246582 58.33604431 C98.79900298 58.36600418 95.07338357 58.38738238 91.34765625 58.40625 C90.07687099 58.41282183 88.80608574 58.41939365 87.49679184 58.42616463 C82.15751827 58.45204842 76.81825899 58.47553807 71.47894478 58.49066067 C63.83113865 58.51257758 56.18403357 58.5545815 48.53650773 58.62409824 C42.50782125 58.67703748 36.47945808 58.69714188 30.45052719 58.70585823 C27.88680447 58.71443649 25.32309505 58.73331226 22.7595253 58.76260185 C19.17522353 58.80135735 15.592761 58.80257098 12.00830078 58.79467773 C10.94630463 58.81467834 9.88430847 58.83467896 8.79013062 58.85528564 C1.86510069 58.786691 1.86510069 58.786691 -0.93758965 56.90311337 C-3.80218081 53.76800132 -4.78149933 50.9144426 -4.74365234 46.75073242 C-4.74650238 45.73335495 -4.74935242 44.71597748 -4.75228882 43.66777039 C-4.72961945 42.58631241 -4.70695007 41.50485443 -4.68359375 40.390625 C-4.67889069 39.26948807 -4.67418762 38.14835114 -4.66934204 36.99324036 C-4.64803775 33.42324737 -4.5914082 29.85475133 -4.53515625 26.28515625 C-4.5186469 23.86394621 -4.50429941 21.4427204 -4.4921875 19.02148438 C-4.45822881 14.61333524 -4.42371404 10.20533287 -4.35302734 5.79760742 C-4.34016693 4.91191574 -4.32730652 4.02622406 -4.3140564 3.11369324 C-4.05730398 -0.24967183 -3.46502418 0.10707738 0 0 Z " fill="#FBFCFD" transform="translate(68.16015625,121.90234375)"/>
<path d="M0 0 C0.87140625 0.52464844 1.7428125 1.04929687 2.640625 1.58984375 C9.08518467 5.55918846 15.47947983 9.79083238 21 15 C21 15.66 21 16.32 21 17 C21.53625 17.20625 22.0725 17.4125 22.625 17.625 C25.91978009 19.53250426 28.59363628 22.04819384 31 25 C31 25.66 31 26.32 31 27 C31.99 27.33 32.98 27.66 34 28 C35.38671875 29.55859375 35.38671875 29.55859375 36.6875 31.4375 C37.12449219 32.05496094 37.56148437 32.67242187 38.01171875 33.30859375 C39 35 39 35 39 37 C39.66 37 40.32 37 41 37 C59.87400717 64.42841329 65.71051438 97.98287025 59.75 130.5625 C56.90487637 143.58441201 52.34055492 155.3401876 46 167 C45.51660156 167.89460937 45.03320312 168.78921875 44.53515625 169.7109375 C40.7280113 176.3971699 35.9653371 182.14603246 31 188 C30.02002358 189.22852117 29.04067608 190.45754487 28.0625 191.6875 C27.381875 192.450625 26.70125 193.21375 26 194 C25.34 194 24.68 194 24 194 C23.7525 194.598125 23.505 195.19625 23.25 195.8125 C21.81927475 198.31626919 20.4308418 199.48072388 18 201 C17.34 201 16.68 201 16 201 C16 201.66 16 202.32 16 203 C5.45083436 212.36507562 -8.00736161 217.91440964 -21 223 C-22.20785156 223.50660156 -23.41570312 224.01320312 -24.66015625 224.53515625 C-29.67474814 226.39964686 -34.7724853 227.04811996 -40.0625 227.6875 C-41.08400146 227.8127002 -42.10550293 227.93790039 -43.15795898 228.06689453 C-70.5069691 231.2412368 -97.89023313 226.62725954 -122 213 C-122 212.34 -122 211.68 -122 211 C-122.83144531 210.8453125 -122.83144531 210.8453125 -123.6796875 210.6875 C-132.7645347 207.99569342 -140.32096356 200.38815713 -147 194 C-148.01513672 193.09701172 -148.01513672 193.09701172 -149.05078125 192.17578125 C-170.57878216 172.28718722 -181.10127216 139.53356235 -183.296875 111.1640625 C-183.840741 86.52693252 -177.2485149 61.76880717 -164 41 C-163.38382813 39.98808594 -162.76765625 38.97617187 -162.1328125 37.93359375 C-161.51148438 36.92425781 -160.89015625 35.91492187 -160.25 34.875 C-159.67765625 33.94429687 -159.1053125 33.01359375 -158.515625 32.0546875 C-158.01546875 31.37664063 -157.5153125 30.69859375 -157 30 C-156.34 30 -155.68 30 -155 30 C-154.67 29.01 -154.34 28.02 -154 27 C-153.34 27 -152.68 27 -152 27 C-151.79375 26.46375 -151.5875 25.9275 -151.375 25.375 C-149.46749574 22.08021991 -146.95180616 19.40636372 -144 17 C-143.34 17 -142.68 17 -142 17 C-141.505 15.515 -141.505 15.515 -141 14 C-139.44140625 12.61328125 -139.44140625 12.61328125 -137.5625 11.3125 C-136.94503906 10.87550781 -136.32757813 10.43851563 -135.69140625 9.98828125 C-134 9 -134 9 -132 9 C-132 8.34 -132 7.68 -132 7 C-94.69031288 -19.00079232 -39.61997691 -24.65711329 0 0 Z M-98 -4 C-98.70463379 -3.74299316 -99.40926758 -3.48598633 -100.13525391 -3.22119141 C-130.54571715 8.28069961 -154.00137026 30.67772391 -167.60473633 60.1652832 C-173.69802286 74.09202245 -176.18710239 87.88390691 -176.18530273 103.05859375 C-176.18747254 105.09917605 -176.20562467 107.13920164 -176.22460938 109.1796875 C-176.34636729 137.2216182 -165.88800864 161.72411093 -148 183 C-147.071875 184.18335938 -147.071875 184.18335938 -146.125 185.390625 C-127.23134824 208.26965643 -97.62880027 219.46442139 -69 223 C-35.92172415 225.01173961 -5.61792692 213.03399154 19.1875 191.625 C37.72836145 174.47618406 53.55703201 147.52638659 55 122 C56.288748 87.43158267 51.49744925 57.79452217 28 31 C27.32710937 30.18402344 26.65421875 29.36804687 25.9609375 28.52734375 C11.37081555 11.36405484 -9.44348274 -0.17391425 -31 -6 C-32.19625 -6.37125 -33.3925 -6.7425 -34.625 -7.125 C-54.11580743 -12.1781723 -79.17387604 -10.88844481 -98 -4 Z " fill="#F0F1F4" transform="translate(188,21)"/>
<path d="M0 0 C1.13386642 -0.0087616 2.26773285 -0.01752319 3.43595886 -0.02655029 C7.18360674 -0.04855496 10.93007452 -0.03398617 14.67773438 -0.01708984 C17.28178128 -0.02045763 19.88582665 -0.02530993 22.48986816 -0.03158569 C27.94731428 -0.04067468 33.40442175 -0.02871455 38.86181641 -0.00488281 C45.16560648 0.02232766 51.46858794 0.01351291 57.77235842 -0.01401484 C63.84384643 -0.03946401 69.91497678 -0.03673859 75.98649597 -0.02210617 C78.56691094 -0.01876895 81.14734652 -0.02287025 83.72773743 -0.03450394 C87.33337189 -0.04719212 90.9374503 -0.02786051 94.54296875 0 C95.61117355 -0.01012115 96.67937836 -0.02024231 97.779953 -0.03067017 C102.56204323 0.03784221 104.99222507 0.08061561 108.94274902 2.95181274 C111.33340933 6.47512836 111.33635877 9.37011408 111.08398438 13.45947266 C110.98085937 15.83134766 110.87773437 18.20322266 110.77148438 20.64697266 C105.82148438 20.64697266 100.87148437 20.64697266 95.77148438 20.64697266 C95.44148438 18.99697266 95.11148438 17.34697266 94.77148438 15.64697266 C89.49148437 15.64697266 84.21148437 15.64697266 78.77148438 15.64697266 C78.27648437 18.12197266 78.27648437 18.12197266 77.77148438 20.64697266 C57.64148438 20.64697266 37.51148437 20.64697266 16.77148438 20.64697266 C16.44148438 18.99697266 16.11148438 17.34697266 15.77148438 15.64697266 C10.49148437 15.64697266 5.21148437 15.64697266 -0.22851562 15.64697266 C-0.55851562 17.29697266 -0.88851562 18.94697266 -1.22851562 20.64697266 C-6.17851563 20.64697266 -11.12851563 20.64697266 -16.22851562 20.64697266 C-16.33164062 18.27509766 -16.43476562 15.90322266 -16.54101562 13.45947266 C-16.58653564 12.72188721 -16.63205566 11.98430176 -16.67895508 11.22436523 C-16.75169603 7.74922471 -16.35265217 5.82992304 -14.39978027 2.95181274 C-9.72197482 -0.44796455 -5.64953941 -0.05352893 0 0 Z " fill="#FCFDFE" transform="translate(80.228515625,97.35302734375)"/>
<path d="M0 0 C0.88126556 -0.0127597 1.76253113 -0.02551941 2.67050171 -0.03866577 C3.61535431 -0.04089142 4.56020691 -0.04311707 5.53369141 -0.04541016 C6.5126236 -0.05206696 7.49155579 -0.05872375 8.50015259 -0.06558228 C10.56958133 -0.07569997 12.63904264 -0.08039957 14.70849609 -0.08007812 C17.86692359 -0.0844473 21.02394894 -0.12076566 24.18212891 -0.15869141 C26.19514497 -0.16456061 28.20816766 -0.16852931 30.22119141 -0.17041016 C31.63239761 -0.19196671 31.63239761 -0.19196671 33.07211304 -0.21395874 C38.73661542 -0.17468842 42.03451675 0.47598854 46.51025391 4.29052734 C49.92121228 8.06053397 50.7330958 10.64809454 50.69775391 15.60302734 C50.65005859 16.46541016 50.60236328 17.32779297 50.55322266 18.21630859 C50.53904297 18.90080078 50.52486328 19.58529297 50.51025391 20.29052734 C52.19326059 21.97353403 54.33034118 21.51861811 56.63916016 21.60693359 C58.19086914 21.66977539 58.19086914 21.66977539 59.77392578 21.73388672 C60.86253906 21.77320312 61.95115234 21.81251953 63.07275391 21.85302734 C64.16523438 21.89621094 65.25771484 21.93939453 66.38330078 21.98388672 C69.09214954 22.09034802 71.80109383 22.19236251 74.51025391 22.29052734 C74.51025391 22.62052734 74.51025391 22.95052734 74.51025391 23.29052734 C37.22025391 23.29052734 -0.06974609 23.29052734 -38.48974609 23.29052734 C-38.48974609 22.96052734 -38.48974609 22.63052734 -38.48974609 22.29052734 C-37.87454102 22.26547119 -37.25933594 22.24041504 -36.62548828 22.21459961 C-33.83004453 22.09834247 -31.03491311 21.97575093 -28.23974609 21.85302734 C-27.27166016 21.81371094 -26.30357422 21.77439453 -25.30615234 21.73388672 C-24.37158203 21.69199219 -23.43701172 21.65009766 -22.47412109 21.60693359 C-21.18586426 21.55194702 -21.18586426 21.55194702 -19.87158203 21.49584961 C-17.64014466 21.30349221 -15.63992085 20.9020649 -13.48974609 20.29052734 C-13.54775391 19.49388672 -13.60576172 18.69724609 -13.66552734 17.87646484 C-14.08009852 8.13996457 -14.08009852 8.13996457 -11.23974609 4.66552734 C-7.50995653 1.44434545 -4.93852413 0.04874073 0 0 Z " fill="#4E6CE1" transform="translate(109.48974609375,74.70947265625)"/>
<path d="M0 0 C1.12535156 0.00580078 1.12535156 0.00580078 2.2734375 0.01171875 C3.02367188 0.00785156 3.77390625 0.00398438 4.546875 0 C10.14682697 0.01010822 10.14682697 0.01010822 11.2734375 1.13671875 C11.2734375 2.78671875 11.2734375 4.43671875 11.2734375 6.13671875 C31.4034375 6.13671875 51.5334375 6.13671875 72.2734375 6.13671875 C72.2734375 4.48671875 72.2734375 2.83671875 72.2734375 1.13671875 C74.09459753 -0.68444128 76.58015514 0.00436795 79 0 C80.12535156 0.00580078 80.12535156 0.00580078 81.2734375 0.01171875 C82.02367187 0.00785156 82.77390625 0.00398438 83.546875 0 C89.14682697 0.01010822 89.14682697 0.01010822 90.2734375 1.13671875 C90.2734375 2.78671875 90.2734375 4.43671875 90.2734375 6.13671875 C95.2234375 6.13671875 100.1734375 6.13671875 105.2734375 6.13671875 C104.2834375 6.79671875 103.2934375 7.45671875 102.2734375 8.13671875 C103.2634375 9.12671875 103.2634375 9.12671875 104.2734375 10.13671875 C99.6534375 10.13671875 95.0334375 10.13671875 90.2734375 10.13671875 C90.2734375 12.11671875 90.2734375 14.09671875 90.2734375 16.13671875 C88.45227747 17.95787878 85.96671986 17.26906955 83.546875 17.2734375 C82.79664063 17.26957031 82.04640625 17.26570313 81.2734375 17.26171875 C80.14808594 17.26751953 80.14808594 17.26751953 79 17.2734375 C73.40004803 17.26332928 73.40004803 17.26332928 72.2734375 16.13671875 C72.2734375 14.15671875 72.2734375 12.17671875 72.2734375 10.13671875 C52.1434375 10.13671875 32.0134375 10.13671875 11.2734375 10.13671875 C11.2734375 12.11671875 11.2734375 14.09671875 11.2734375 16.13671875 C9.45227747 17.95787878 6.96671986 17.26906955 4.546875 17.2734375 C3.79664062 17.26957031 3.04640625 17.26570313 2.2734375 17.26171875 C1.14808594 17.26751953 1.14808594 17.26751953 0 17.2734375 C-5.59995197 17.26332928 -5.59995197 17.26332928 -6.7265625 16.13671875 C-6.7265625 14.15671875 -6.7265625 12.17671875 -6.7265625 10.13671875 C-11.3465625 10.46671875 -15.9665625 10.79671875 -20.7265625 11.13671875 C-21.0565625 17.07671875 -21.3865625 23.01671875 -21.7265625 29.13671875 C-22.0565625 29.13671875 -22.3865625 29.13671875 -22.7265625 29.13671875 C-22.75567571 26.05340535 -22.77339932 22.9701275 -22.7890625 19.88671875 C-22.79744141 19.01402344 -22.80582031 18.14132813 -22.81445312 17.2421875 C-22.81767578 16.39785156 -22.82089844 15.55351563 -22.82421875 14.68359375 C-22.83207397 13.52102051 -22.83207397 13.52102051 -22.84008789 12.33496094 C-22.7265625 10.13671875 -22.7265625 10.13671875 -21.7265625 6.13671875 C-16.7765625 6.13671875 -11.8265625 6.13671875 -6.7265625 6.13671875 C-6.7265625 4.48671875 -6.7265625 2.83671875 -6.7265625 1.13671875 C-4.90540247 -0.68444128 -2.41984486 0.00436795 0 0 Z " fill="#4666DD" transform="translate(85.7265625,111.86328125)"/>
<path d="M0 0 C0.88126556 -0.0127597 1.76253113 -0.02551941 2.67050171 -0.03866577 C3.61535431 -0.04089142 4.56020691 -0.04311707 5.53369141 -0.04541016 C6.5126236 -0.05206696 7.49155579 -0.05872375 8.50015259 -0.06558228 C10.56958133 -0.07569997 12.63904264 -0.08039957 14.70849609 -0.08007812 C17.86692359 -0.0844473 21.02394894 -0.12076566 24.18212891 -0.15869141 C26.19514497 -0.16456061 28.20816766 -0.16852931 30.22119141 -0.17041016 C31.63239761 -0.19196671 31.63239761 -0.19196671 33.07211304 -0.21395874 C38.88033163 -0.17369208 42.0495727 0.49714362 46.51025391 4.29052734 C50.51176998 8.8255789 49.74014605 13.54322378 49.51025391 19.29052734 C46.21025391 19.29052734 42.91025391 19.29052734 39.51025391 19.29052734 C39.51025391 16.32052734 39.51025391 13.35052734 39.51025391 10.29052734 C25.65025391 10.29052734 11.79025391 10.29052734 -2.48974609 10.29052734 C-2.81974609 13.26052734 -3.14974609 16.23052734 -3.48974609 19.29052734 C-6.78974609 19.29052734 -10.08974609 19.29052734 -13.48974609 19.29052734 C-14.3503486 8.54255825 -14.3503486 8.54255825 -11.23974609 4.72802734 C-7.52595919 1.43626168 -4.96884707 0.04904 0 0 Z " fill="#F6F8FB" transform="translate(109.48974609375,74.70947265625)"/>
<path d="M0 0 C3.87034512 1.32697547 6.47578262 2.73272295 9 6 C10.52998311 11.72237778 10.63391918 16.29295372 9 22 C5.5029444 25.63736956 1.84960149 27.64308515 -3 29 C-5.5625 28.78125 -5.5625 28.78125 -8 28 C-8.88300781 27.72027344 -9.76601563 27.44054687 -10.67578125 27.15234375 C-13.7699398 25.72673885 -15.72016251 24.55734579 -18 22 C-19.44922388 16.35038333 -19.42083561 11.65386451 -18 6 C-15.40603556 2.92319861 -12.71317431 1.45443831 -9 0 C-5.86855038 -1.56572481 -3.23290459 -0.92022752 0 0 Z " fill="#BACDEF" transform="translate(71,53)"/>
<path d="M0 0 C1.65 0 3.3 0 5 0 C5.33 0.99 5.66 1.98 6 3 C7.175625 2.9071875 7.175625 2.9071875 8.375 2.8125 C9.674375 2.9053125 9.674375 2.9053125 11 3 C13 6 13 6 13 10 C13.99 10.33 14.98 10.66 16 11 C16 12.32 16 13.64 16 15 C14.68 15.33 13.36 15.66 12 16 C12.33 17.98 12.66 19.96 13 22 C10 24 10 24 7.3125 23.625 C6.549375 23.41875 5.78625 23.2125 5 23 C5 23.99 5 24.98 5 26 C3.35 26 1.7 26 0 26 C0 25.01 0 24.02 0 23 C-1.98 23.33 -3.96 23.66 -6 24 C-7.4606285 21.35261084 -8 20.10551666 -8 17 C-8.99 16.34 -9.98 15.68 -11 15 C-11 13.68 -11 12.36 -11 11 C-9.68 10.67 -8.36 10.34 -7 10 C-7.33 8.02 -7.66 6.04 -8 4 C-5.50935112 3.31292445 -3.62113708 3 -1 3 C-0.67 2.01 -0.34 1.02 0 0 Z " fill="#536FDA" transform="translate(146,146)"/>
<path d="M0 0 C13.44263138 -1.92037591 26.56900461 8.60808066 37 16 C37.75667969 16.50917969 38.51335937 17.01835937 39.29296875 17.54296875 C40.90227884 18.63832752 42.45959555 19.80968747 44 21 C44 21.66 44 22.32 44 23 C44.680625 23.165 45.36125 23.33 46.0625 23.5 C49.75140011 25.38369367 51.73928134 27.86541972 54.3515625 31.02734375 C55.94215444 33.00668828 55.94215444 33.00668828 57.7109375 34.62890625 C59 36 59 36 59 38 C59.66 38 60.32 38 61 38 C62.26171875 39.58203125 62.26171875 39.58203125 63.6875 41.8125 C64.21988281 42.64394531 64.75226563 43.47539063 65.30078125 44.33203125 C66.14189453 45.65267578 66.14189453 45.65267578 67 47 C67.82564453 48.21236328 67.82564453 48.21236328 68.66796875 49.44921875 C72.38414934 55.00223002 75.52107599 60.7484225 78.4375 66.75 C78.79183105 67.45898438 79.14616211 68.16796875 79.51123047 68.8984375 C81.69383083 73.52117858 82.38111275 76.89175187 82 82 C80.0565996 79.0848994 78.90768952 76.43507378 77.625 73.1875 C75.79825556 68.73045786 73.82611919 64.92010081 71 61 C70.32045984 59.84078443 69.65429165 58.67365156 69 57.5 C67.68390261 55.14460349 66.28376939 52.90714514 64.75 50.6875 C63 48 63 48 63 46 C62.34 46 61.68 46 61 46 C59.73046875 44.48828125 59.73046875 44.48828125 58.1875 42.3125 C54.87421401 37.92501182 51.24698029 34.01335692 47.375 30.125 C46.82481201 29.56594971 46.27462402 29.00689941 45.70776367 28.4309082 C42.65550816 25.39978829 39.72048509 23.19909713 36 21 C36 20.34 36 19.68 36 19 C35.319375 18.773125 34.63875 18.54625 33.9375 18.3125 C31.00376537 17.0016824 28.70836907 15.31730624 26.1328125 13.421875 C18.12816754 8.08544502 8.89134293 4.56284309 0 1 C0 0.67 0 0.34 0 0 Z " fill="#D5D2CD" transform="translate(173,0)"/>
<path d="M0 0 C-2.49469923 1.28925025 -5.01453577 2.4513965 -7.58203125 3.59375 C-23.17898744 10.56635405 -36.31842783 19.59545328 -49 31 C-49.66386719 31.59167969 -50.32773437 32.18335938 -51.01171875 32.79296875 C-64.07787091 45.12814737 -72.86139997 61.0910748 -80.19775391 77.25341797 C-81.08814648 79.19190503 -82.0242775 81.10303697 -83 83 C-84.3775495 73.35715347 -79.55190182 66.15025146 -75 58 C-74.40703125 56.92621094 -73.8140625 55.85242187 -73.203125 54.74609375 C-70.36724534 49.81138236 -70.36724534 49.81138236 -69 48 C-68.34 48 -67.68 48 -67 48 C-66.7525 47.28457031 -66.505 46.56914063 -66.25 45.83203125 C-64.86136405 42.68590294 -63.15536054 40.36189037 -61 37.6875 C-60.29875 36.80449219 -59.5975 35.92148437 -58.875 35.01171875 C-58.25625 34.34785156 -57.6375 33.68398438 -57 33 C-56.34 33 -55.68 33 -55 33 C-54.67 32.01 -54.34 31.02 -54 30 C-53.34 30 -52.68 30 -52 30 C-52 29.34 -52 28.68 -52 28 C-51.34 28 -50.68 28 -50 28 C-50 27.34 -50 26.68 -50 26 C-41.40927449 18.04900937 -31.34256325 11.42231471 -21 6 C-20.03835937 5.45859375 -19.07671875 4.9171875 -18.0859375 4.359375 C-11.67226162 0.88462401 -7.30068268 -0.73006827 0 0 Z " fill="#D4D5D2" transform="translate(83,0)"/>
<path d="M0 0 C0.33 0 0.66 0 1 0 C1.38187084 6.26268173 0.52712195 10.14199885 -2.4375 15.625 C-2.79658447 16.31158691 -3.15566895 16.99817383 -3.52563477 17.70556641 C-8.99340586 27.9704772 -14.99782748 37.4529156 -23.0546875 45.9140625 C-25.04085874 47.95505782 -25.04085874 47.95505782 -26.6328125 50.2734375 C-27.08398438 50.84320313 -27.53515625 51.41296875 -28 52 C-28.66 52 -29.32 52 -30 52 C-30 52.66 -30 53.32 -30 54 C-33.4685361 57.22956215 -37.26636383 60.08362661 -41 63 C-42.54494141 64.21429688 -42.54494141 64.21429688 -44.12109375 65.453125 C-48.84694396 69.08932057 -53.41695519 72.58259451 -58.875 75.02734375 C-60.57466309 75.80531454 -62.2335683 76.6720936 -63.875 77.56640625 C-69.91121617 80.81841771 -74.11746806 82.7941383 -81 82 C-78.21787163 80.14524775 -75.44130876 78.80329693 -72.40063477 77.43554688 C-64.96046278 74.08028785 -58.04221162 70.3896093 -51.29174805 65.79467773 C-47.1733729 63 -47.1733729 63 -45 63 C-45 62.34 -45 61.68 -45 61 C-42.8828125 59.0546875 -42.8828125 59.0546875 -40.125 56.875 C-39.22007812 56.15054688 -38.31515625 55.42609375 -37.3828125 54.6796875 C-35 53 -35 53 -33 53 C-33 52.34 -33 51.68 -33 51 C-31.625 49.375 -31.625 49.375 -30 48 C-29.34 48 -28.68 48 -28 48 C-27.731875 47.42765625 -27.46375 46.8553125 -27.1875 46.265625 C-25.95867364 43.92115366 -24.57477824 41.87595062 -23 39.75 C-22.484375 39.04359375 -21.96875 38.3371875 -21.4375 37.609375 C-20.963125 37.07828125 -20.48875 36.5471875 -20 36 C-19.34 36 -18.68 36 -18 36 C-17.75636719 35.31550781 -17.51273438 34.63101563 -17.26171875 33.92578125 C-15.7666716 30.45893818 -13.81881112 27.37112708 -11.8125 24.1875 C-7.03956477 16.45808564 -3.43102423 8.39552875 0 0 Z " fill="#CBCAC8" transform="translate(254,173)"/>
<path d="M0 0 C1.84968178 2.77452267 2.7934983 5.02540294 3.9375 8.125 C6.59479044 14.69195947 10.27868955 20.3654603 14.25366211 26.21142578 C14.72167236 26.90478027 15.18968262 27.59813477 15.671875 28.3125 C16.0956543 28.92738281 16.51943359 29.54226562 16.95605469 30.17578125 C18.06085403 32.106338 18.56483483 33.82777056 19 36 C19.66 36 20.32 36 21 36 C22.33984375 37.58203125 22.33984375 37.58203125 23.9375 39.8125 C38.79081648 59.3017592 59.53800814 71.98789384 82 81 C82 81.33 82 81.66 82 82 C74.77340281 82.6356729 70.28279593 80.69750075 64 77.25 C63.07936768 76.75266357 62.15873535 76.25532715 61.21020508 75.74291992 C35.79210955 61.6663244 16.59822457 41.01028186 3.1875 15.3125 C2.85556641 14.68988281 2.52363281 14.06726563 2.18164062 13.42578125 C-0.13205847 8.7068521 -0.28820079 5.12545321 0 0 Z " fill="#CECAC3" transform="translate(0,173)"/>
<path d="M0 0 C0.66 0.99 1.32 1.98 2 3 C1.34 3 0.68 3 0 3 C0.33 6.63 0.66 10.26 1 14 C1.66 13.67 2.32 13.34 3 13 C3.46651207 10.87423218 3.46651207 10.87423218 3.625 8.4375 C3.69976562 7.61121094 3.77453125 6.78492187 3.8515625 5.93359375 C3.90054688 5.29550781 3.94953125 4.65742187 4 4 C11.50533049 6.21748401 11.50533049 6.21748401 14 9 C14.25 12.6875 14.25 12.6875 14 16 C14.66 16.33 15.32 16.66 16 17 C15.01 17.33 14.02 17.66 13 18 C13 19.32 13 20.64 13 22 C16.3 20.02 19.6 18.04 23 16 C22.67 15.34 22.34 14.68 22 14 C22.66 14 23.32 14 24 14 C24.33 11.03 24.66 8.06 25 5 C25.33 5 25.66 5 26 5 C26.74611632 9.20726705 27.03281003 12.8272399 26 17 C22.46551634 20.38513928 18.64684019 22.4899227 14 24 C11.4375 23.796875 11.4375 23.796875 9 23 C8.11699219 22.72027344 7.23398437 22.44054687 6.32421875 22.15234375 C3.21235588 20.71858174 1.26517184 19.60107185 -1 17 C-1.94596554 11.54167009 -1.72644138 6.47673635 -1 1 C-0.67 0.67 -0.34 0.34 0 0 Z " fill="#CCDAF5" transform="translate(54,58)"/>
<path d="M0 0 C1.9375 0.375 1.9375 0.375 4 1 C4.33 1.66 4.66 2.32 5 3 C7.02463255 3.65213292 7.02463255 3.65213292 9 4 C9 8 9 8 8 11 C8.66 11 9.32 11 10 11 C9.34 12.32 8.68 13.64 8 15 C7.01 15 6.02 15 5 15 C4.67 15.99 4.34 16.98 4 18 C2.35 18 0.7 18 -1 18 C-1.33 17.01 -1.66 16.02 -2 15 C-2.66 14.835 -3.32 14.67 -4 14.5 C-4.66 14.335 -5.32 14.17 -6 14 C-6.33 13.01 -6.66 12.02 -7 11 C-6.34 11 -5.68 11 -5 11 C-5 9.68 -5 8.36 -5 7 C-5.66 7 -6.32 7 -7 7 C-6.34 5.68 -5.68 4.36 -5 3 C-3.68 3.33 -2.36 3.66 -1 4 C-0.67 2.68 -0.34 1.36 0 0 Z " fill="#5E76D8" transform="translate(168,139)"/>
<path d="M0 0 C19.14 0 38.28 0 58 0 C58 0.66 58 1.32 58 2 C50.74392028 2.87953804 43.60942737 3.13461151 36.3046875 3.09765625 C35.23123077 3.0962413 34.15777405 3.09482635 33.05178833 3.09336853 C29.6594959 3.08781925 26.26727212 3.07527647 22.875 3.0625 C20.55989679 3.05747844 18.24479254 3.05291668 15.9296875 3.04882812 C10.28643534 3.0378665 4.64322258 3.02117973 -1 3 C-0.67 2.01 -0.34 1.02 0 0 Z " fill="#3861E0" transform="translate(100,119)"/>
<path d="M0 0 C4.875 4.625 4.875 4.625 6 8 C6.66 8 7.32 8 8 8 C9.26171875 9.58203125 9.26171875 9.58203125 10.6875 11.8125 C11.21988281 12.64394531 11.75226563 13.47539063 12.30078125 14.33203125 C12.86152344 15.21246094 13.42226562 16.09289062 14 17 C14.82564453 18.21236328 14.82564453 18.21236328 15.66796875 19.44921875 C19.38414934 25.00223002 22.52107599 30.7484225 25.4375 36.75 C25.96899658 37.81347656 25.96899658 37.81347656 26.51123047 38.8984375 C28.69383083 43.52117858 29.38111275 46.89175187 29 52 C27.0565996 49.0848994 25.90768952 46.43507378 24.625 43.1875 C22.79825556 38.73045786 20.82611919 34.92010081 18 31 C17.32045984 29.84078443 16.65429165 28.67365156 16 27.5 C14.68390261 25.14460349 13.28376939 22.90714514 11.75 20.6875 C10 18 10 18 10 16 C9.34 16 8.68 16 8 16 C6.34375 14.13671875 6.34375 14.13671875 4.5 11.6875 C3.8915625 10.88699219 3.283125 10.08648437 2.65625 9.26171875 C1.39439121 7.53856725 0.18471531 5.77707297 -1 4 C-0.625 1.8125 -0.625 1.8125 0 0 Z " fill="#CDCBC4" transform="translate(226,30)"/>
<path d="M0 0 C0.33 0.66 0.66 1.32 1 2 C0.34 2 -0.32 2 -1 2 C-0.43628586 5.26954202 0.49962266 6.82575883 3 9 C1.9275 8.79375 0.855 8.5875 -0.25 8.375 C-4.01582383 7.99841762 -4.93049365 8.13637115 -8 10 C-8.99 10 -9.98 10 -11 10 C-11 12.97 -11 15.94 -11 19 C-12.98 19.99 -12.98 19.99 -15 21 C-15.02712153 19.083412 -15.04645097 17.1667127 -15.0625 15.25 C-15.07410156 14.18265625 -15.08570313 13.1153125 -15.09765625 12.015625 C-14.94178525 7.20232859 -14.94178525 7.20232859 -14 5 C-12.109375 3.515625 -12.109375 3.515625 -9.75 2.25 C-8.98171875 1.82203125 -8.2134375 1.3940625 -7.421875 0.953125 C-4.77113619 -0.09006898 -2.8225571 -0.18016322 0 0 Z " fill="#BACBF0" transform="translate(69,52)"/>
<path d="M0 0 C0.33 0 0.66 0 1 0 C1.39192713 6.3058276 0.49345503 10.17469148 -2.5 15.6875 C-2.85513672 16.36941406 -3.21027344 17.05132812 -3.57617188 17.75390625 C-7.06987093 24.3606201 -10.95544324 30.71802886 -15 37 C-15.99 36.67 -16.98 36.34 -18 36 C-16.47111848 31.70457096 -14.22955686 28.02290101 -11.8125 24.1875 C-7.03956477 16.45808564 -3.43102423 8.39552875 0 0 Z " fill="#C5C5C2" transform="translate(254,173)"/>
<path d="M0 0 C4.43791228 0.32472529 8.13454897 1.36691744 11.71875 3.9921875 C14.63681971 8.56501625 12.82014786 14.90681284 12 20 C10.68 19.34 9.36 18.68 8 18 C8 15.03 8 12.06 8 9 C7.01 9.33 6.02 9.66 5 10 C4.67 9.01 4.34 8.02 4 7 C3.319375 6.525625 2.63875 6.05125 1.9375 5.5625 C1.298125 5.046875 0.65875 4.53125 0 4 C0 2.68 0 1.36 0 0 Z " fill="#B3C5EC" transform="translate(67,53)"/>
<path d="M0 0 C-2.57875427 1.30098349 -5.17093264 2.55830984 -7.79296875 3.76953125 C-15.34581547 7.2777732 -22.79496072 10.80797715 -30 15 C-29.70703125 12.62109375 -29.70703125 12.62109375 -29 10 C-25.6875 8.0625 -25.6875 8.0625 -23.5078125 7.11328125 C-20.89997914 5.99763489 -20.89997914 5.99763489 -18.1171875 4.41796875 C-11.68969124 0.90832565 -7.32843781 -0.73284378 0 0 Z " fill="#C2C1C0" transform="translate(83,0)"/>
<path d="M0 0 C6.55661664 0.48567531 6.55661664 0.48567531 8.5625 2.8125 C9.11386938 5.5693469 8.49337756 6.67696824 7 9 C7.66 9 8.32 9 9 9 C8.25 10.9375 8.25 10.9375 7 13 C5.125 13.6875 5.125 13.6875 3 14 C1.88625 14.2784375 1.88625 14.2784375 0.75 14.5625 C0.1725 14.706875 -0.405 14.85125 -1 15 C-0.43628586 11.73045798 0.49962266 10.17424117 3 8 C2.67 7.01 2.34 6.02 2 5 C0.68 5 -0.64 5 -2 5 C-1.34 3.35 -0.68 1.7 0 0 Z " fill="#536CD0" transform="translate(169,141)"/>
<path d="M0 0 C5.56818182 0.56818182 5.56818182 0.56818182 7 2 C7.1875 4.9375 7.1875 4.9375 7 8 C5 10 5 10 2 10.3125 C1.01 10.209375 0.02 10.10625 -1 10 C-3 7 -3 7 -2.75 4.4375 C-2 2 -2 2 0 0 Z " fill="#F6F9FC" transform="translate(146,154)"/>
<path d="M0 0 C6.87799023 -0.98257003 11.38814918 0.76614233 17.4375 3.8125 C18.14777344 4.16828125 18.85804688 4.5240625 19.58984375 4.890625 C22.94359743 6.65134568 24.86653703 7.79980554 27 11 C26.34 11.66 25.68 12.32 25 13 C24.45214844 12.63648438 23.90429688 12.27296875 23.33984375 11.8984375 C15.92610976 7.19704521 8.1790947 4.07533961 0 1 C0 0.67 0 0.34 0 0 Z " fill="#CDCBCB" transform="translate(173,0)"/>
<path d="M0 0 C-1.41150763 4.61562996 -3.29931035 8.84332349 -5.5 13.125 C-5.96212891 14.03572266 -5.96212891 14.03572266 -6.43359375 14.96484375 C-7.28629834 16.64463519 -8.14300562 18.32239307 -9 20 C-9.66837991 21.33247533 -10.33599069 22.66534129 -11 24 C-12.07034158 15.13145547 -8.49401835 8.40191257 -4 1 C-2 0 -2 0 0 0 Z " fill="#C9CAC9" transform="translate(11,59)"/>
<path d="M0 0 C0.33 1.32 0.66 2.64 1 4 C-0.72721684 5.27348212 -2.45686238 6.54367057 -4.1875 7.8125 C-5.15042969 8.52019531 -6.11335938 9.22789063 -7.10546875 9.95703125 C-9.6779333 11.77268437 -12.27720484 13.42207301 -15 15 C-14.690625 14.401875 -14.38125 13.80375 -14.0625 13.1875 C-12.89790296 10.91043228 -12.89790296 10.91043228 -12 8 C-9.27734375 5.95703125 -9.27734375 5.95703125 -5.9375 3.8125 C-4.83277344 3.09707031 -3.72804688 2.38164062 -2.58984375 1.64453125 C-1.73519531 1.10183594 -0.88054688 0.55914062 0 0 Z " fill="#CECFCC" transform="translate(52,12)"/>
<path d="M0 0 C2.91517292 1.07401108 4.77810176 1.77810176 7 4 C7.125 7.625 7.125 7.625 7 11 C3.535 9.02 3.535 9.02 0 7 C0 4.69 0 2.38 0 0 Z " fill="#5676DA" transform="translate(59,64)"/>
<path d="M0 0 C2.3125 0.75 2.3125 0.75 4.3125 1.75 C3.3125 4.75 3.3125 4.75 0.3125 6.75 C-3.06244032 6.42339287 -5.11107133 4.86635213 -7.6875 2.75 C-3.39531893 -0.31584362 -3.39531893 -0.31584362 0 0 Z " fill="#4766D5" transform="translate(67.6875,59.25)"/>
<path d="M0 0 C1.44098611 0.76429661 2.87766054 1.53672555 4.3125 2.3125 C5.11300781 2.74175781 5.91351563 3.17101562 6.73828125 3.61328125 C8.8592282 4.91368914 10.416779 6.08886267 12 8 C12 8.66 12 9.32 12 10 C6.55791766 9.65986985 3.06331802 6.29703472 -1 3 C-0.67 2.01 -0.34 1.02 0 0 Z " fill="#DBD9D6" transform="translate(200,10)"/>
<path d="M0 0 C-1.52934209 1.32684028 -3.07409505 2.63592933 -4.625 3.9375 C-5.48351562 4.66839844 -6.34203125 5.39929688 -7.2265625 6.15234375 C-10.24962041 8.16629642 -12.41659535 8.66898168 -16 9 C-12.87378374 5.60582235 -10.43458973 3.3937282 -6 2 C-6 1.34 -6 0.68 -6 0 C-3.50907189 -1.24546405 -2.58919267 -0.7767578 0 0 Z " fill="#D4D4D1" transform="translate(215,234)"/>
<path d="M0 0 C0 2.64 0 5.28 0 8 C-1.98 8.99 -3.96 9.98 -6 11 C-6.43869957 5.64786526 -6.43869957 5.64786526 -6 3 C-2.34375 0 -2.34375 0 0 0 Z " fill="#5471D1" transform="translate(73,64)"/>
<path d="M0 0 C0.66 0.33 1.32 0.66 2 1 C-0.17830094 5.01265962 -2.70304256 7.85638942 -6 11 C-7.1067739 12.10155327 -8.21093442 13.20573836 -9.3125 14.3125 C-10.199375 15.199375 -11.08625 16.08625 -12 17 C-12.66 16.67 -13.32 16.34 -14 16 C-12.04266995 13.70746969 -10.08418394 11.41594507 -8.125 9.125 C-7.56941406 8.47402344 -7.01382813 7.82304688 -6.44140625 7.15234375 C-5.90644531 6.52714844 -5.37148438 5.90195312 -4.8203125 5.2578125 C-4.32805176 4.6817627 -3.83579102 4.10571289 -3.32861328 3.51220703 C-2.26399715 2.30047746 -1.14054725 1.14054725 0 0 Z " fill="#5770DA" transform="translate(48,42)"/>
<path d="M0 0 C0.33 0 0.66 0 1 0 C0.98839844 0.69867188 0.97679687 1.39734375 0.96484375 2.1171875 C0.95582031 3.02726562 0.94679687 3.93734375 0.9375 4.875 C0.92589844 5.77992187 0.91429687 6.68484375 0.90234375 7.6171875 C0.83750743 10.0168585 0.83750743 10.0168585 2 12 C-2.29 12 -6.58 12 -11 12 C-10.67 11.01 -10.34 10.02 -10 9 C-6.7 9 -3.4 9 0 9 C0 6.03 0 3.06 0 0 Z " fill="#3C5DD6" transform="translate(159,85)"/>
<path d="M0 0 C1.98 0.99 1.98 0.99 4 2 C4 4.64 4 7.28 4 10 C2.02 10.99 2.02 10.99 0 12 C0 8.04 0 4.08 0 0 Z " fill="#617CD9" transform="translate(54,61)"/>
<path d="M0 0 C2.64 1.32 5.28 2.64 8 4 C8 5.32 8 6.64 8 8 C3.49197399 6.74194623 0.5087188 5.09592835 -3 2 C-2.01 1.34 -1.02 0.68 0 0 Z " fill="#3D61CB" transform="translate(58,72)"/>
<path d="M0 0 C3.04344294 4.5651644 6.20803868 9.45152616 5.75 15.0625 C5.5025 15.701875 5.255 16.34125 5 17 C1.86140926 13.86140926 0.18478201 10.16081823 -0.19140625 5.76171875 C-0.18799305 3.84008939 -0.10099876 1.91897636 0 0 Z " fill="#C9C7C2" transform="translate(0,173)"/>
<path d="M0 0 C2.97 1.65 5.94 3.3 9 5 C9 5.99 9 6.98 9 8 C5.23293356 7.47679633 2.72611199 6.72611199 0 4 C0 2.68 0 1.36 0 0 Z " fill="#4D68CF" transform="translate(67,53)"/>
<path d="M0 0 C0.33 0.66 0.66 1.32 1 2 C-0.45537568 2.83848804 -1.91440373 3.67063934 -3.375 4.5 C-4.59316406 5.19609375 -4.59316406 5.19609375 -5.8359375 5.90625 C-8 7 -8 7 -10 7 C-10 5.68 -10 4.36 -10 3 C-6.66954606 0.33563684 -4.2225435 -0.3619323 0 0 Z " fill="#4462C8" transform="translate(77,73)"/>
<path d="M0 0 C-0.25 2.375 -0.25 2.375 -1 5 C-2.75 6.375 -2.75 6.375 -5 7 C-7.75 6.625 -7.75 6.625 -10 6 C-7.35570758 3.077361 -4.105808 0 0 0 Z " fill="#4F68D6" transform="translate(65,54)"/>
<path d="M0 0 C0.58265625 0.36867187 1.1653125 0.73734375 1.765625 1.1171875 C0.30758331 1.93021075 -1.15081815 2.74258881 -2.609375 3.5546875 C-3.82753906 4.23337891 -3.82753906 4.23337891 -5.0703125 4.92578125 C-6.44434122 5.6822411 -7.83146761 6.41573381 -9.234375 7.1171875 C-9.234375 5.7971875 -9.234375 4.4771875 -9.234375 3.1171875 C-2.784375 -1.10012019 -2.784375 -1.10012019 0 0 Z " fill="#C2C1BD" transform="translate(200.234375,242.8828125)"/>
<path d="M0 0 C0.33 0 0.66 0 1 0 C1.36601307 7.32026144 1.36601307 7.32026144 -0.3125 10.4375 C-2 12 -2 12 -5 13 C-4.54554036 11.58208592 -4.08625056 10.16571954 -3.625 8.75 C-3.24214844 7.56664062 -3.24214844 7.56664062 -2.8515625 6.359375 C-2.04826333 4.13372042 -1.10288338 2.09068328 0 0 Z " fill="#BBBCB9" transform="translate(254,173)"/>
<path d="M0 0 C4.95 0 9.9 0 15 0 C14.34 1.32 13.68 2.64 13 4 C10.69 3.67 8.38 3.34 6 3 C6 2.67 6 2.34 6 2 C3.03 1.505 3.03 1.505 0 1 C0 0.67 0 0.34 0 0 Z " fill="#4769D3" transform="translate(64,118)"/>
<path d="M0 0 C0 3.63 0 7.26 0 11 C-0.99 10.67 -1.98 10.34 -3 10 C-3 7.03 -3 4.06 -3 1 C-1 0 -1 0 0 0 Z " fill="#4768D3" transform="translate(78,61)"/>
<path d="M0 0 C2.0625 0.4375 2.0625 0.4375 4 1 C4 2.32 4 3.64 4 5 C2.68 5.33 1.36 5.66 0 6 C-0.38218767 4.34385343 -0.71395102 2.67542976 -1 1 C-0.67 0.67 -0.34 0.34 0 0 Z " fill="#EAEFF9" transform="translate(168,145)"/>
<path d="M0 0 C3.465 1.98 3.465 1.98 7 4 C6.67 5.32 6.34 6.64 6 8 C3.36 6.35 0.72 4.7 -2 3 C-1.34 2.67 -0.68 2.34 0 2 C0 1.34 0 0.68 0 0 Z " fill="#C3C1BB" transform="translate(49,237)"/>
<path d="M0 0 C0.99 0.33 1.98 0.66 3 1 C3 3.31 3 5.62 3 8 C3.66 8.33 4.32 8.66 5 9 C4.01 9.33 3.02 9.66 2 10 C2 11.98 2 13.96 2 16 C1.67 16 1.34 16 1 16 C1 14.02 1 12.04 1 10 C0.01 9.67 -0.98 9.34 -2 9 C-1.34 8.67 -0.68 8.34 0 8 C0 5.36 0 2.72 0 0 Z " fill="#E9F2FB" transform="translate(65,66)"/>
<path d="M0 0 C2 3 2 3 1.5390625 5.48046875 C1.23742187 6.37378906 0.93578125 7.26710938 0.625 8.1875 C0.32851563 9.08855469 0.03203125 9.98960938 -0.2734375 10.91796875 C-0.63308594 11.94857422 -0.63308594 11.94857422 -1 13 C-1.33 13 -1.66 13 -2 13 C-2.05447047 11.58376784 -2.09300508 10.16691809 -2.125 8.75 C-2.14820313 7.96109375 -2.17140625 7.1721875 -2.1953125 6.359375 C-1.9828378 3.79268059 -1.28654105 2.2083933 0 0 Z " fill="#B8B8BB" transform="translate(2,70)"/>
<path d="M0 0 C-0.62003906 0.30550781 -1.24007812 0.61101563 -1.87890625 0.92578125 C-4.00002477 1.96404506 -4.00002477 1.96404506 -5.9375 3.1875 C-8.61798826 4.24344992 -10.27167933 3.75786685 -13 3 C-9.21656826 -0.94792877 -5.07874402 -0.29300446 0 0 Z " fill="#B7B9BA" transform="translate(83,0)"/>
<path d="M0 0 C0.33 0.99 0.66 1.98 1 3 C-0.9375 5.6875 -0.9375 5.6875 -3 8 C-3.66 7.67 -4.32 7.34 -5 7 C-3.75023244 3.34683329 -3.32901247 2.21934164 0 0 Z " fill="#C3C4C2" transform="translate(241,202)"/>
<path d="M0 0 C3 1 3 1 4.1875 2.8125 C5 5 5 5 5 9 C4.34 9 3.68 9 3 9 C0.56839395 5.63316085 0 4.26649636 0 0 Z " fill="#D3D0C3" transform="translate(241,52)"/>
<path d="M0 0 C0.33 0.99 0.66 1.98 1 3 C-0.32 4.32 -1.64 5.64 -3 7 C-3.99 6.67 -4.98 6.34 -6 6 C-2.25 1.125 -2.25 1.125 0 0 Z " fill="#D4D4D2" transform="translate(245,196)"/>
<path d="M0 0 C0.33 0 0.66 0 1 0 C1 1.98 1 3.96 1 6 C-0.65 6.66 -2.3 7.32 -4 8 C-3.4021799 4.65220745 -2.20964398 2.57791798 0 0 Z " fill="#4263DD" transform="translate(72,66)"/>
<path d="M0 0 C0.99 0.33 1.98 0.66 3 1 C4.1875 3.5625 4.1875 3.5625 5 6 C3.68 6 2.36 6 1 6 C0.67 4.02 0.34 2.04 0 0 Z " fill="#DBD9CB" transform="translate(5,188)"/>
<path d="M0 0 C3 3 6 6 9 9 C8.67 9.66 8.34 10.32 8 11 C6.29115995 9.37660195 4.62553283 7.70680947 3 6 C3 5.34 3 4.68 3 4 C2.01 3.67 1.02 3.34 0 3 C0 2.01 0 1.02 0 0 Z " fill="#607AD7" transform="translate(210,46)"/>
<path d="M0 0 C1.32 0.33 2.64 0.66 4 1 C4.625 2.875 4.625 2.875 5 5 C4.34 5.66 3.68 6.32 3 7 C0 3.375 0 3.375 0 0 Z " fill="#BBB7AC" transform="translate(237,47)"/>
<path d="M0 0 C0.99 0 1.98 0 3 0 C3.99 1.98 4.98 3.96 6 6 C5.01 6.33 4.02 6.66 3 7 C3 6.34 3 5.68 3 5 C2.34 5 1.68 5 1 5 C0.67 3.35 0.34 1.7 0 0 Z " fill="#D7D3C7" transform="translate(233,41)"/>
<path d="M0 0 C-0.33 0.99 -0.66 1.98 -1 3 C-3.31 3.33 -5.62 3.66 -8 4 C-4.5 0 -4.5 0 0 0 Z " fill="#D0D1D0" transform="translate(72,3)"/>
<path d="M0 0 C1.875 0.25 1.875 0.25 4 1 C5.25 3.0625 5.25 3.0625 6 5 C3.83125748 4.49396008 2.00032373 4.00016187 0 3 C0 2.01 0 1.02 0 0 Z " fill="#DBD7CF" transform="translate(43,234)"/>
<path d="M0 0 C3.875 1.75 3.875 1.75 5 4 C4.34 4.66 3.68 5.32 3 6 C1.68 5.01 0.36 4.02 -1 3 C-0.67 2.01 -0.34 1.02 0 0 Z " fill="#B8B4AE" transform="translate(39,230)"/>
<path d="M0 0 C0.33 0.99 0.66 1.98 1 3 C-0.32 4.32 -1.64 5.64 -3 7 C-3.33 5.68 -3.66 4.36 -4 3 C-2.68 2.01 -1.36 1.02 0 0 Z M-6 5 C-4 6 -4 6 -4 6 Z " fill="#C7C8C3" transform="translate(20,43)"/>
<path d="M0 0 C0.66 0 1.32 0 2 0 C2 0.99 2 1.98 2 3 C2.66 3 3.32 3 4 3 C3.34 4.32 2.68 5.64 2 7 C0.4375 5.1875 0.4375 5.1875 -1 3 C-0.67 2.01 -0.34 1.02 0 0 Z " fill="#CBC6B4" transform="translate(17,206)"/>
<path d="M0 0 C1.485 0.99 1.485 0.99 3 2 C2.34 3.32 1.68 4.64 1 6 C2.32 5.67 3.64 5.34 5 5 C5 5.66 5 6.32 5 7 C3.35 7 1.7 7 0 7 C-0.38133299 5.0085944 -0.71325582 3.00720923 -1 1 C-0.67 0.67 -0.34 0.34 0 0 Z " fill="#6F84D6" transform="translate(167,150)"/>
<path d="M0 0 C0.99 0.33 1.98 0.66 3 1 C3 1.66 3 2.32 3 3 C3.66 3.33 4.32 3.66 5 4 C2.69 4.33 0.38 4.66 -2 5 C-1.34 3.35 -0.68 1.7 0 0 Z " fill="#5069D9" transform="translate(169,141)"/>
<path d="M0 0 C0.99 0.33 1.98 0.66 3 1 C2.67 1.99 2.34 2.98 2 4 C-0.0625 4.6875 -0.0625 4.6875 -2 5 C-2 3.68 -2 2.36 -2 1 C-1.34 0.67 -0.68 0.34 0 0 Z " fill="#5370D5" transform="translate(69,75)"/>
<path d="M0 0 C0.99 0.33 1.98 0.66 3 1 C3 2.32 3 3.64 3 5 C1.02 4.34 -0.96 3.68 -3 3 C-2.01 2.01 -1.02 1.02 0 0 Z " fill="#5A76D2" transform="translate(63,75)"/>
<path d="M0 0 C1.89213369 2.38573379 3.02391783 4.07175348 4 7 C3.01 7.33 2.02 7.66 1 8 C-1.125 3.375 -1.125 3.375 0 0 Z " fill="#C0BAB0" transform="translate(246,58)"/>
</svg>
